<?xml version="1.0" encoding="UTF-8"?>
<svg width="2266" height="546" viewBox="0 0 2266 546" version="1.1" xmlns="http://www.w3.org/2000/svg" xmlns:xlink="http://www.w3.org/1999/xlink">
    <!-- Generator: Sketch 47.1 (45422) - http://www.bohemiancoding.com/sketch -->
    <title>the-cruzat-logo_02</title>
    <desc>Created with Sketch.</desc>
    <defs></defs>
    <g id="Page-1" stroke="none" stroke-width="1" fill="current" fill-rule="evenodd">
        <g id="the-cruzat-logo_02" fill="current">
            <path d="M786.793,128.27 C804.664,124.108 808.907,105.875 830.794,105.271 C833.602,106.886 835.056,107.394 836.794,110.269 C838.794,114.602 840.794,118.938 842.794,123.271 C949.294,-17.229 1055.79,52.271 1059.8,94.272 C1105.98,69.703 1125.79,90.771 1143.29,177.771 C1160.79,264.771 1159.77,322.273 1166.79,406.27 C1181.41,398.599 1239.34,338.789 1256.79,320.272 C1211.8,201.944 1174.79,71.773 1173.79,64.272 C1172.79,56.771 1218.29,42.771 1219.79,47.27 C1228.79,66.934 1237.79,86.605 1246.79,106.269 C1419.29,28.271 1518.99,124.763 1529.29,174.271 C1547.29,260.771 1526.29,335.271 1488.79,410.27 C1533.08,404.047 1578.77,401.25 1628.1,401.988 C1625.37,392.899 1621.27,375.642 1618.94,371.642 C1585.01,377.484 1556.09,387.488 1545.8,390.27 C1545.8,390.27 1537.8,373.271 1537.8,372.269 C1558.44,367.523 1567.79,119.271 1560.79,35.27 C1578.79,30.771 1614.79,-6.229 1624.79,12.271 C1634.79,30.77 1666.36,78.788 1701.43,132.513 C1722.59,111.304 1754.79,108.271 1774.79,120.269 C1797.22,133.61 1854.23,151.799 1878.73,151.799 C1862.79,119.937 1834.13,76.271 1796.29,61.271 C1787.86,69.678 1759.88,95.574 1746.79,93.271 C1735.1,95.077 1727.29,73.06 1733.79,62.272 C1751.7,32.556 1804.29,-12.232 1829.79,3.27 C1855.29,18.771 1905.79,66.771 1950.79,151.271 C1991.68,147.604 2059.37,125.94 2082.79,96.269 C2079.46,94.938 2072.79,92.272 2072.79,92.272 L2071.79,78.272 L2122.79,53.604 L2165.29,61.271 C2165.29,61.271 2140.73,90.517 2132.79,96.937 C2127.52,101.196 2116.09,97.088 2112.79,100.269 C2083.29,128.771 2027.29,161.771 1965.79,178.27 C1989,230.888 2017.29,354.771 2020.79,437.272 C2057.46,410.271 2126.42,363.48 2178.42,345.812 C2163.75,320.076 2141.64,296.126 2137.79,260.271 C2147.76,238.064 2182.12,227.686 2207.79,229.269 L2222.79,253.27 C2221.5,257.838 2215.18,265.758 2215.79,270.271 C2218.35,289.092 2244.6,316.165 2265.8,331.271 C2259.74,348.499 2231.63,367.643 2212.79,371.271 C2203.79,370.269 2194.13,369.937 2189.13,364.271 C2145.06,383.479 2010.13,460.271 1963.46,513.604 C1961.8,512.27 1957.46,507.602 1955.79,506.271 C1965.79,394.937 1921.46,252.604 1896.58,190.887 C1811.58,198.385 1748.66,178.46 1730.16,174.961 C1736.66,186.461 1797.5,270.647 1817,292.646 C1865.25,283.802 1871.85,287.203 1887.1,303.537 C1902.34,319.871 1868.9,324.971 1849.47,330.927 C1860.97,341.56 1885.23,378.413 1930.23,396.413 C1938.29,395.771 1941.13,401.271 1941.79,404.27 C1937.53,415.941 1894.59,446.066 1884.37,448.907 C1853.69,457.433 1777.57,358.156 1769.4,346.722 C1735.23,352.068 1708.13,356.621 1689.06,359.557 C1691.01,365.874 1709.63,393.272 1719.29,408.271 C1726.23,411.016 1738.79,413.271 1745.11,419.318 C1738.61,436.318 1708.29,454.771 1679.79,457.272 C1627.29,445.271 1560.29,435.271 1467.79,446.27 C1423.77,507.163 1380.86688,535.067166 1397.79,505.27 C1455.15234,404.27 1509.35547,312.272 1471.4,191.078 C1455.38245,139.933032 1404.79,68.771 1253.79,124.269 L1264.79,147.271 C1287.39,128.926 1327.1,104.55 1348.79,121.271 C1361.47,131.039 1457.81,243.57 1459.79,278.271 C1454.8,282.937 1401.46,312.938 1399.79,312.272 C1384.53,277.532 1312.29,166.271 1305.29,165.271 C1298.29,164.271 1282.66,174.338 1279.29,176.771 C1298.37,214.564 1371.1,416.923 1379.79,424.27 C1385.02,443.363 1340.93,471.974 1321.79,473.269 C1304.67,459.641 1273.61,367.568 1265.79,345.271 C1242.34,370.319 1176.79,445.77 1109.79,454.271 C1113.77,477.207 1117.33,494.573 1113.23,507.306 C1109.7,518.266 1061.79,558.271 1057.8,542.272 C1042.87,482.567 1027.13,320.602 1024.79,302.272 C1005.79,328.271 982.556,349.085 949.294,375.771 C951.794,380.771 954.794,386.269 959.794,400.27 C964.794,414.271 909.795,454.772 901.294,440.271 C892.793,425.769 866.794,349.224 851.294,314.271 C817.294,355.521 795.003,454.582 686.796,450.892 C629.46,448.937 607.657,409.769 595.8,377.935 C522.46,491.937 400.674,471.083 375.793,431.272 C375.044,430.075 348.681,464.052 340.794,460.271 C334.01,457.018 263.292,311.77 243.794,287.771 C224.295,263.771 252.789,357.345 263.794,380.27 C269.572,392.309 223.794,447.77 219.794,428.27 C215.794,408.771 167.794,325.271 132.794,302.771 C139.265,306.931 131.884,320.727 131.218,328.395 C147.548,348.059 193.794,391.271 195.793,412.27 C197.568,430.904 162.794,433.271 147.294,458.271 C144.057,463.491 107.737,410.532 89.795,398.27 C78.794,412.771 56.795,424.27 47.294,420.771 C37.793,417.271 21.469,374.043 31.294,372.771 C41.118,371.499 57.814,367.773 62.554,362.272 C53.386,345.37 25.292,311.77 4.793,303.27 C-15.706,294.771 35.296,246.772 49.795,252.271 C64.294,257.771 78.721,283.327 91.794,292.271 C78.294,255.27 42.792,204.77 38.793,182.27 C34.794,159.771 78.297,99.772 89.795,133.271 C101.294,166.771 161.294,235.271 193.794,271.27 C207.294,244.771 231.099,227.854 252.793,222.271 C283.572,214.351 297.294,274.771 331.294,290.771 C333.794,240.771 351.779,196.093 374.794,164.27 C379.292,158.05 434.869,112.731 452.795,117.271 C471.881,122.105 583.684,303.505 565.795,308.272 C558.294,310.271 505.294,356.771 495.294,350.271 C452.738,361.826333 418.237667,365.825667 391.793,362.269 C418.794,450.937 515.044,429.771 586.794,351.271 C551.294,173.271 630.277,55.945 679.793,21.27 C695.432,10.32 722.294,3.771 749.794,5.27 C763.294,27.271 775.794,67.271 786.793,128.27 Z M404.794,163.272 C394.584,201.663 367.786,254.455 379.46,306.937 C407.015333,311.825667 440.792667,309.936667 480.792,301.27 C481.294,259.771 420.007,172.743 404.794,163.272 Z M1059.8,114.269 C1059.79,163.771 1018.05,254.959 992.793,308.272 C1009.25,301.69 1035.62,241.472 1081.78,237.517 C1084.7,239.979 1088.44,248.518 1088.78,250.518 C1074.25,266.803 1087.97,312.596 1093.29,352.771 C1109.29,292.771 1099.42,131.982 1059.8,114.269 Z M1602.79,331.271 L1738.79,305.27 C1739.42,305.669 1655.13,185.937 1616.79,111.271 C1618.03,135.914 1612.79,261.771 1602.79,331.271 Z M851.793,136.27 L901.794,258.605 L936.795,350.269 C992.234,260.029 1012.27,193.84 1006.78,122.305 C1001.29,50.771 893.622,71.717 851.793,136.27 Z M637.249,297.479 L642.929,316.981 C650.263,346.981 679.683,396.498 709.46,398.271 C765.46,401.604 788.127,343.604 840.811,290.782 C831.144,268.785 819.797,244.768 813.795,229.269 C804.794,265.771 788.893,265.233 768.793,261.27 C760.294,130.771 724.294,33.771 702.795,28.271 C665.294,68.271 607.25,155.978 637.249,297.479 Z" id="Fill-1"></path>
        </g>
    </g>
</svg>